<svg width="17" height="17" viewBox="0 0 17 17" fill="none" xmlns="http://www.w3.org/2000/svg">
<path d="M15.1725 7.00282C16.0642 6.83561 16.6665 5.96704 16.3255 5.1263C15.86 3.97883 15.1382 2.9446 14.2071 2.10702C12.8661 0.900813 11.1653 0.169525 9.36741 0.02604C7.56947 -0.117444 5.77429 0.334853 4.25897 1.31312C3.20675 1.99241 2.33011 2.89908 1.68853 3.9582C1.21845 4.73421 1.67534 5.6873 2.52927 5.99383C3.3832 6.30035 4.30652 5.8294 4.87558 5.12277C5.20338 4.71571 5.59602 4.36068 6.04098 4.07342C6.95017 3.48647 8.02728 3.21509 9.10604 3.30118C10.1848 3.38727 11.2052 3.82604 12.0098 4.54977C12.4036 4.90396 12.7349 5.31677 12.994 5.77066C13.4438 6.5586 14.2808 7.17003 15.1725 7.00282Z" fill="url(#paint0_linear_750_2345)"/>
<path d="M4.17026 3.46699C3.54291 2.81156 2.48641 2.78181 1.96868 3.52686C1.55846 4.11719 1.22615 4.76078 0.981935 5.44193C0.552142 6.64069 0.406967 7.92296 0.55788 9.18746C0.708792 10.452 1.15166 11.664 1.85149 12.728C2.24915 13.3325 2.72358 13.8798 3.26121 14.3571C3.93974 14.9593 4.95957 14.6818 5.41504 13.8971C5.87052 13.1125 5.57377 12.1194 4.98133 11.4322C4.84252 11.2712 4.7139 11.101 4.59644 10.9224C4.17654 10.2841 3.91082 9.55681 3.82028 8.79811C3.72973 8.03941 3.81683 7.27005 4.07471 6.55079C4.14684 6.3496 4.23178 6.15388 4.32881 5.96473C4.7429 5.15747 4.7976 4.12243 4.17026 3.46699Z" fill="url(#paint1_linear_750_2345)"/>
<path d="M3.48565 12.1941C2.76373 12.7436 2.61519 13.7901 3.29721 14.3884C4.43216 15.3841 5.82838 16.0551 7.33767 16.3117C9.39111 16.6608 11.5005 16.2167 13.2389 15.0693C14.9773 13.9219 16.2149 12.157 16.7012 10.1317C17.0586 8.64307 16.9905 7.09548 16.5212 5.66048C16.2391 4.79816 15.2185 4.52333 14.4294 4.97109C13.6403 5.41884 13.3956 6.42604 13.5605 7.3182C13.6848 7.9908 13.6689 8.68787 13.5064 9.36463C13.2146 10.5798 12.4721 11.6388 11.429 12.3272C10.386 13.0156 9.12037 13.282 7.8883 13.0726C7.20215 12.956 6.55495 12.6966 5.98538 12.3178C5.22987 11.8155 4.20757 11.6445 3.48565 12.1941Z" fill="url(#paint2_linear_750_2345)"/>
<defs>
<linearGradient id="paint0_linear_750_2345" x1="15.6477" y1="5.12302" x2="1.0616" y2="7.27846" gradientUnits="userSpaceOnUse">
<stop stop-color="#C300E1"/>
<stop offset="1" stop-color="#56177A"/>
</linearGradient>
<linearGradient id="paint1_linear_750_2345" x1="4.60468" y1="4.41458" x2="1.59297" y2="12.0324" gradientUnits="userSpaceOnUse">
<stop stop-color="#5406AB"/>
<stop offset="1" stop-color="#2EC7FE"/>
</linearGradient>
<linearGradient id="paint2_linear_750_2345" x1="15.7061" y1="11.4133" x2="8.71425" y2="16.4278" gradientUnits="userSpaceOnUse">
<stop stop-color="#D600F6"/>
<stop offset="1" stop-color="#392296"/>
</linearGradient>
</defs>
</svg>
